<?xml version="1.0" encoding="UTF-8"?>
<svg version="1.1" xmlns="http://www.w3.org/2000/svg" width="1280" height="720">
<path d="M0 0 C422.4 0 844.8 0 1280 0 C1280 237.6 1280 475.2 1280 720 C857.6 720 435.2 720 0 720 C0 482.4 0 244.8 0 0 Z " fill="#0E110B" transform="translate(0,0)"/>
<path d="M0 0 C0 0.33 0 0.66 0 1 C-0.99257813 1.02578125 -1.98515625 1.0515625 -3.0078125 1.078125 C-18.96521154 1.66745514 -32.72039404 5.1272823 -44.75 16.25 C-53.75690332 26.0289236 -57.78837939 37.64676631 -62 50 C-60.94296875 50.13019531 -59.8859375 50.26039063 -58.796875 50.39453125 C-44.76050735 52.63284091 -30.48541637 61.35277818 -21.99609375 72.671875 C-13.77432594 85.24425429 -8.01296649 97.21216058 -10.39453125 112.5390625 C-13.33484288 124.18649049 -21.42962933 133.96644844 -29 143 C-29.66386719 143.84949219 -30.32773437 144.69898438 -31.01171875 145.57421875 C-39.09579084 155.43710435 -50.77629669 162.31141386 -61.4375 169.0625 C-62.26209717 169.58473145 -63.08669434 170.10696289 -63.9362793 170.64501953 C-67.4345073 172.84005425 -70.92312629 175.00487897 -74.57421875 176.9375 C-81.25917503 180.49824496 -85.32058956 184.28003187 -89.88671875 190.33203125 C-92.84540129 194.06729959 -96.28806957 197.03652421 -100 200 C-99.52140759 201.60433809 -99.04210442 203.20846416 -98.5625 204.8125 C-98.29566406 205.70582031 -98.02882813 206.59914063 -97.75390625 207.51953125 C-97.19612127 209.35473055 -96.60655425 211.18033726 -96 213 C-95.90691456 214.66458673 -95.87003815 216.33281997 -95.875 218 C-95.87113281 219.299375 -95.87113281 219.299375 -95.8671875 220.625 C-96 223 -96 223 -97 226 C-98.91015625 225.78515625 -98.91015625 225.78515625 -101 225 C-101.87109375 222.99609375 -101.87109375 222.99609375 -102.4375 220.4375 C-103.77645104 215.26766127 -105.93429903 211.33802746 -109 207 C-109.99 207.66 -110.98 208.32 -112 209 C-115.1875 208.625 -115.1875 208.625 -118 208 C-118.96238036 210.03976214 -119.91972527 212.08190046 -120.875 214.125 C-121.40867187 215.26195312 -121.94234375 216.39890625 -122.4921875 217.5703125 C-123.858743 220.67869521 -124.98629528 223.76204996 -126 227 C-127.32 226.67 -128.64 226.34 -130 226 C-130.4391017 218.21814211 -130.22881568 212.04099439 -126.875 204.92578125 C-125.86211207 203.04906415 -125.86211207 203.04906415 -126 201 C-127.48677661 199.53587878 -127.48677661 199.53587878 -129.4375 198 C-135.29589469 193.02924087 -140.73060916 187.40408627 -145 181 C-146.51595456 180.22204828 -148.03895545 179.4549072 -149.59375 178.7578125 C-177.44073653 166.27087013 -203.54539212 145.41534487 -216 117 C-216.433125 116.05125 -216.86625 115.1025 -217.3125 114.125 C-220.57684909 99.28704961 -214.83296337 86.32413685 -207 74 C-198.63336587 62.49779 -184.84567224 53.54191615 -171 50 C-169.33354945 49.97316112 -167.66638382 49.96929611 -166 50 C-172.40493954 31.89809641 -179.10833082 16.3094864 -197 7 C-199.83727797 5.82087149 -202.66877302 4.77496489 -205.58984375 3.82421875 C-207.85266377 3.05038565 -209.89105067 2.12053224 -212 1 C-195.73481425 1.40387594 -181.41630595 9.63819474 -170.35546875 21.19140625 C-164.4275977 28.25963061 -156 39.32001557 -156 49 C-154.86111328 49.09087891 -154.86111328 49.09087891 -153.69921875 49.18359375 C-152.70535156 49.26738281 -151.71148438 49.35117188 -150.6875 49.4375 C-149.70136719 49.51871094 -148.71523438 49.59992188 -147.69921875 49.68359375 C-145 50 -145 50 -142 51 C-140.18009624 51.09318427 -138.35695523 51.12792289 -136.53466797 51.12939453 C-135.41696014 51.13254669 -134.29925232 51.13569885 -133.14767456 51.13894653 C-131.94136383 51.1369223 -130.7350531 51.13489807 -129.4921875 51.1328125 C-127.6376445 51.13424759 -127.6376445 51.13424759 -125.74563599 51.13571167 C-122.46134692 51.13656705 -119.17710506 51.13253796 -115.89282227 51.12695312 C-113.87400819 51.12499904 -111.85523748 51.12694979 -109.83642578 51.13037109 C-105.97165893 51.13652141 -102.10695697 51.13580779 -98.2421875 51.1328125 C-96.42664871 51.13584885 -96.42664871 51.13584885 -94.57443237 51.13894653 C-93.46302887 51.13579437 -92.35162537 51.13264221 -91.20654297 51.12939453 C-90.22297821 51.12859894 -89.23941345 51.12780334 -88.2260437 51.12698364 C-86.02744856 51.24934456 -86.02744856 51.24934456 -85 50 C-82.65012738 49.76472227 -80.29443961 49.58613583 -77.9375 49.4375 C-76.64714844 49.35371094 -75.35679687 49.26992187 -74.02734375 49.18359375 C-73.02832031 49.12300781 -72.02929688 49.06242187 -71 49 C-70.896875 48.14792969 -70.79375 47.29585937 -70.6875 46.41796875 C-67.91952494 32.65672912 -57.74005766 20.11313268 -46.79296875 11.84765625 C-31.78285316 1.91788747 -17.69711363 -0.53091341 0 0 Z " fill="#618A5C" transform="translate(749,161)"/>
<path d="M0 0 C0.66 0 1.32 0 2 0 C3.93193207 2.27124292 5.72798572 4.54504571 7.5 6.9375 C8.03246338 7.65462158 8.56492676 8.37174316 9.11352539 9.1105957 C23.24714527 28.48621301 31.44204629 46.86163453 31.3125 71.125 C31.31100952 71.81220123 31.30951904 72.49940247 31.3079834 73.20742798 C31.26799161 83.44935555 30.79570393 93.10658221 28 103 C27.7215625 104.00675781 27.443125 105.01351562 27.15625 106.05078125 C26.22145678 109.09288851 25.15438978 112.03422047 24 115 C23.76297363 115.61343262 23.52594727 116.22686523 23.28173828 116.85888672 C17.58385988 131.370056 9.65035041 142.56683854 -1 154 C-2.69904848 155.97628249 -4.3524369 157.98040653 -6 160 C-6 155.8852763 -3.93842437 153.29504493 -1.875 149.875 C5.44671288 137.25792648 9.66272348 124.54864633 11 110 C10.34 110 9.68 110 9 110 C8.71125 110.639375 8.4225 111.27875 8.125 111.9375 C7 114 7 114 5 115 C5.14447983 113.49986903 5.29067215 111.99990298 5.4375 110.5 C5.51871094 109.6646875 5.59992187 108.829375 5.68359375 107.96875 C5.91953802 105.75495189 6.21112683 103.54695061 6.53125 101.34375 C7.17854535 96.23307824 7.10861366 91.14344625 7.0625 86 C7.05798828 85.03449219 7.05347656 84.06898438 7.04882812 83.07421875 C7.03715436 80.71611856 7.01922324 78.35805073 7 76 C5.68 78.97 4.36 81.94 3 85 C0.81178974 81.71768461 -0.26231556 78.46838545 -1.4375 74.75 C-2.6827606 70.82958967 -3.95695685 67.01406385 -5.66015625 63.265625 C-7 60 -7 60 -7 56 C-7.66 56 -8.32 56 -9 56 C-9.16363037 56.54309814 -9.32726074 57.08619629 -9.49584961 57.64575195 C-11.33519074 63.47855562 -13.69132143 68.79402999 -16.5625 74.1875 C-16.99941162 75.01048584 -17.43632324 75.83347168 -17.88647461 76.68139648 C-26.43202118 92.436722 -37.90892886 105.79205668 -51 118 C-51.33 118 -51.66 118 -52 118 C-52.29119774 112.24264904 -52.57565163 106.48501348 -52.85449219 100.72705078 C-52.94975147 98.77807143 -53.04669157 96.82917334 -53.14550781 94.88037109 C-53.81870678 81.5743874 -54.1310093 68.32291788 -54 55 C-53.52296631 55.41137207 -53.04593262 55.82274414 -52.55444336 56.24658203 C-51.61290405 57.05651611 -51.61290405 57.05651611 -50.65234375 57.8828125 C-50.03093506 58.41793457 -49.40952637 58.95305664 -48.76928711 59.50439453 C-46.90112618 61.08357955 -44.98516872 62.57067852 -43 64 C-35.51048013 53.09225771 -28.05536867 42.16109377 -20.62509155 31.21292114 C-19.72206568 29.88282229 -18.81845847 28.55311789 -17.91421509 27.22384644 C-16.61295597 25.31055378 -15.31373754 23.39589749 -14.015625 21.48046875 C-13.59770187 20.86465439 -13.17977875 20.24884003 -12.74919128 19.61436462 C-10.59152945 16.41841444 -8.48061193 13.20042299 -6.42773438 9.93603516 C-6.0165033 9.28379471 -5.60527222 8.63155426 -5.18157959 7.95954895 C-4.39916048 6.71209607 -3.62302979 5.46067091 -2.85406494 4.20487976 C-1.95461161 2.76939479 -0.98374775 1.37908439 0 0 Z " fill="#50714C" transform="translate(737,285)"/>
<path d="M0 0 C3.85491305 1.28497102 4.38662054 2.72520479 6.55078125 6.12109375 C7.2567041 7.21147949 7.96262695 8.30186523 8.68994141 9.42529297 C9.06556213 10.00929871 9.44118286 10.59330444 9.82818604 11.19500732 C11.81445688 14.25454104 13.86817224 17.26797567 15.91796875 20.28515625 C16.78304104 21.56236305 17.64802997 22.83962631 18.51293945 24.11694336 C19.40441955 25.43215608 20.29594041 26.74734117 21.1875 28.0625 C21.64377777 28.73588409 22.10005554 29.40926819 22.57015991 30.10305786 C30.01531114 41.09029373 37.48744594 52.0587107 45 63 C45.45890625 62.60167969 45.9178125 62.20335937 46.390625 61.79296875 C47.00421875 61.26316406 47.6178125 60.73335938 48.25 60.1875 C48.85328125 59.66542969 49.4565625 59.14335937 50.078125 58.60546875 C52.00349638 56.99707924 53.98051569 55.48780592 56 54 C56.07127364 68.42499358 55.8565588 82.8297094 55.5 97.25 C55.45160623 99.27864068 55.40342817 101.30728651 55.35546875 103.3359375 C55.23945233 108.22402105 55.12056403 113.11202659 55 118 C53.89435735 117.05732141 52.78943733 116.11379523 51.68481445 115.16992188 C50.76174248 114.381922 50.76174248 114.381922 49.82002258 113.57800293 C32.25774922 98.35109362 19.6483532 78.50218012 11 57 C11 56.34 11 55.68 11 55 C10.34 55 9.68 55 9 55 C8.91878906 55.75539063 8.83757813 56.51078125 8.75390625 57.2890625 C7.6904305 62.52378768 5.80371428 67.37908959 3.9375 72.375 C3.56044922 73.39722656 3.18339844 74.41945313 2.79492188 75.47265625 C1.86799899 77.98356127 0.93623553 80.49255574 0 83 C-2.32472205 80.14693203 -3.7508258 77.45925163 -5 74 C-5.05906119 77.60409539 -5.09394639 81.20806309 -5.125 84.8125 C-5.14175781 85.81732422 -5.15851562 86.82214844 -5.17578125 87.85742188 C-5.21519509 93.98627466 -4.71049921 99.66138227 -3.4453125 105.66210938 C-2.91051328 108.46980527 -2.84592819 111.14967155 -3 114 C-4.65 112.68 -6.3 111.36 -8 110 C-7.73780572 124.13465519 -3.52609731 136.04513601 3.40844727 148.16552734 C6 152.71924684 6 152.71924684 6 156 C-7.62942771 143.22241152 -17.11483955 128.34610686 -22.8125 110.5625 C-23.19341797 109.43779297 -23.57433594 108.31308594 -23.96679688 107.15429688 C-27.88298535 95.21369418 -29.37844866 83.66372429 -29.3125 71.125 C-29.30686035 69.99022217 -29.3012207 68.85544434 -29.29541016 67.6862793 C-28.9091661 40.92644958 -17.46592671 19.62129639 0 0 Z " fill="#50714C" transform="translate(531,286)"/>
<path d="M0 0 C6.93 0 13.86 0 21 0 C21.44730469 1.98257812 21.89460938 3.96515625 22.35546875 6.0078125 C22.80896081 8.0172616 23.26251027 10.02669773 23.71606445 12.03613281 C24.02146233 13.38930953 24.32680443 14.74249883 24.63208008 16.09570312 C27.4079842 28.40020993 30.20452154 40.69989477 33 53 C36.96 35.51 40.92 18.02 45 0 C51.93 0 58.86 0 66 0 C66 22.77 66 45.54 66 69 C61.71 69 57.42 69 53 69 C52.67 51.51 52.34 34.02 52 16 C48.9583098 29.99177492 45.92026021 43.98184217 42.9765625 57.99414062 C42.73164063 59.14720703 42.48671875 60.30027344 42.234375 61.48828125 C42.02006836 62.50446533 41.80576172 63.52064941 41.58496094 64.56762695 C41 67 41 67 40 69 C35.38 69 30.76 69 26 69 C22.62877775 57.80814957 20.10051823 46.57061306 17.75 35.125 C16.5125 29.14375 15.275 23.1625 14 17 C13.67 34.16 13.34 51.32 13 69 C8.71 69 4.42 69 0 69 C0 46.23 0 23.46 0 0 Z " fill="#638B5E" transform="translate(415,466)"/>
<path d="M0 0 C5.28 0 10.56 0 16 0 C18.09664136 3.65741657 20.19249013 7.31526901 22.28662109 10.97412109 C22.99389058 12.20938359 23.701551 13.44442235 24.40966797 14.67919922 C30.36757225 25.06930697 36.18249834 35.52849702 42 46 C42.33 30.82 42.66 15.64 43 0 C47.29 0 51.58 0 56 0 C56 22.77 56 45.54 56 69 C42 69 42 69 39 66.1875 C38.2856873 64.81543859 37.62270707 63.41599119 37 62 C32.71265119 53.93072834 28.21382037 45.97245884 23.75 38 C22.81414063 36.32357422 22.81414063 36.32357422 21.859375 34.61328125 C21.26125 33.54464844 20.663125 32.47601563 20.046875 31.375 C19.24008301 29.93253906 19.24008301 29.93253906 18.41699219 28.4609375 C17.3455206 26.60007713 16.19110197 24.78665295 15 23 C14.67 38.18 14.34 53.36 14 69 C9.38 69 4.76 69 0 69 C0 46.23 0 23.46 0 0 Z " fill="#628A5D" transform="translate(602,466)"/>
<path d="M0 0 C5.61 0 11.22 0 17 0 C20.37583004 7.91817726 23.43182112 15.84780991 26.1875 24 C28.67488383 31.28872512 31.18649902 38.56585239 33.8046875 45.80859375 C34.03579727 46.44906647 34.26690704 47.08953918 34.50502014 47.74942017 C35.63121742 50.86833762 36.76267631 53.98512805 37.90112305 57.09960938 C38.3062915 58.22044922 38.71145996 59.34128906 39.12890625 60.49609375 C39.67140015 61.98387329 39.67140015 61.98387329 40.22485352 63.50170898 C41 66 41 66 41 69 C36.05 69 31.1 69 26 69 C22 58.375 22 58.375 22 55 C13.09 55 4.18 55 -5 55 C-5.66 57.97 -6.32 60.94 -7 64 C-7.66 65.65 -8.32 67.3 -9 69 C-13.95 69 -18.9 69 -24 69 C-21.38537406 60.32124021 -18.57208391 51.76434648 -15.48828125 43.2421875 C-15.07458786 42.09130646 -14.66089447 40.94042542 -14.23466492 39.75466919 C-12.93006681 36.12710118 -11.6214108 32.50101383 -10.3125 28.875 C-8.99380665 25.21295132 -7.67593674 21.55060713 -6.35820007 17.88821411 C-5.54207065 15.62091342 -4.7252122 13.35387498 -3.907547 11.08712769 C-3.54013901 10.06821442 -3.17273102 9.04930115 -2.79418945 7.99951172 C-2.47094193 7.10384491 -2.1476944 6.2081781 -1.81465149 5.28536987 C-1.18920221 3.53077547 -0.58904909 1.76714727 0 0 Z " fill="#628A5D" transform="translate(533,466)"/>
<path d="M0 0 C5.12395114 5.36794881 6.625 9.28033817 6.625 16.75 C2.005 16.75 -2.615 16.75 -7.375 16.75 C-7.99348958 15.02473958 -8.61197917 13.29947917 -9.23046875 11.57421875 C-10.86821176 8.96389116 -12.60209789 8.05604866 -15.375 6.75 C-20.99536181 5.85313375 -25.8009987 5.76996145 -30.6875 8.8125 C-32.85514707 12.58581156 -32.43019069 14.61040576 -31.375 18.75 C-26.60169702 20.2251665 -21.8243327 21.6456242 -16.984375 22.88671875 C0.36413014 27.38260839 0.36413014 27.38260839 7.125 34.3125 C9.63015199 40.0534733 9.68916593 46.1091177 7.9296875 52.12890625 C5.05258387 58.49963572 0.41752213 62.09256904 -5.75 65.0625 C-14.80770881 68.39093517 -25.025949 68.05835 -34 64.6875 C-40.11643564 61.7539378 -43.58201854 58.09146545 -46.75 52.1875 C-47.375 49.75 -47.375 49.75 -47.375 43.75 C-42.755 43.75 -38.135 43.75 -33.375 43.75 C-33.00375 44.843125 -32.6325 45.93625 -32.25 47.0625 C-31.02194794 49.84533357 -30.36999062 50.75388227 -27.875 52.6875 C-21.6778452 54.56877914 -15.79690066 54.71040888 -9.75 52.3125 C-7.51312826 50.95549211 -7.51312826 50.95549211 -6.375 49.75 C-5.95807147 46.33399407 -5.95807147 46.33399407 -6.375 42.75 C-9.50574486 39.58069917 -13.07079346 38.84955942 -17.3125 37.8125 C-18.65277831 37.47175685 -19.99261532 37.12927369 -21.33203125 36.78515625 C-22.00572754 36.61387207 -22.67942383 36.44258789 -23.37353516 36.26611328 C-26.43120478 35.47763883 -29.4679249 34.63161819 -32.5 33.75 C-33.51320313 33.46125 -34.52640625 33.1725 -35.5703125 32.875 C-40.0477003 31.07905615 -42.73725791 28.82756423 -45.1875 24.6875 C-47.4743699 18.61095999 -47.01985303 12.16819886 -45.375 6 C-41.94103957 0.4198143 -37.85939522 -3.26480879 -31.75 -5.6875 C-20.36927542 -7.6813671 -9.4940214 -6.96700576 0 0 Z " fill="#628A5D" transform="translate(859.375,470.25)"/>
<path d="M0 0 C18.48 0 36.96 0 56 0 C56 3.96 56 7.92 56 12 C49.4 12 42.8 12 36 12 C36 30.81 36 49.62 36 69 C31.05 69 26.1 69 21 69 C21 50.19 21 31.38 21 12 C14.07 12 7.14 12 0 12 C0 8.04 0 4.08 0 0 Z " fill="#628B5D" transform="translate(685,466)"/>
<path d="M0 0 C4.62 0 9.24 0 14 0 C14 22.77 14 45.54 14 69 C9.38 69 4.76 69 0 69 C0 46.23 0 23.46 0 0 Z " fill="#648D5F" transform="translate(768,466)"/>
<path d="M0 0 C6.62732318 0.16164203 12.66119183 3.78428699 17.375 8.25 C21.0952433 14.54579635 22.72849288 20.71507122 22 28 C20.5 31 20.5 31 19 33 C11.74327171 32.54645448 6.69391905 29.76481166 1.625 24.5625 C-1.61856311 19.44765048 -2.27549784 14.74199123 -2.25 8.75 C-2.25515625 7.52796875 -2.2603125 6.3059375 -2.265625 5.046875 C-2 2 -2 2 0 0 Z " fill="#4F6F4B" transform="translate(585,229)"/>
<path d="M0 0 C2 2 2 2 2.1171875 5.1953125 C1.58587133 13.81634588 1.10363217 20.89636783 -5.25 27.25 C-14.48421053 33.12631579 -14.48421053 33.12631579 -19 32.75 C-19.66 32.5025 -20.32 32.255 -21 32 C-22.96285023 26.1114493 -23.09895144 19.16917532 -21.05859375 13.28515625 C-16.81391292 5.28812435 -9.53958469 -1.08404371 0 0 Z " fill="#51714D" transform="translate(686,229)"/>
<path d="M0 0 C16.26518575 0.40387594 30.58369405 8.63819474 41.64453125 20.19140625 C47.5724023 27.25963061 56 38.32001557 56 48 C57.32 48.33 58.64 48.66 60 49 C55.38 49 50.76 49 46 49 C45.63648438 47.97261719 45.27296875 46.94523437 44.8984375 45.88671875 C38.75303165 28.81224379 31.76616852 14.72386004 15 6 C12.16272203 4.82087149 9.33122698 3.77496489 6.41015625 2.82421875 C4.14733623 2.05038565 2.10894933 1.12053224 0 0 Z " fill="#4A6946" transform="translate(537,162)"/>
<path d="M0 0 C0 0.33 0 0.66 0 1 C-0.99257813 1.02578125 -1.98515625 1.0515625 -3.0078125 1.078125 C-18.96521154 1.66745514 -32.72039404 5.1272823 -44.75 16.25 C-53.48980911 25.71812653 -57.69038455 37.09288618 -62 49 C-64.97 49 -67.94 49 -71 49 C-69.3213396 35.13006841 -59.63826355 22.5861452 -49.3125 13.75 C-34.05595124 2.23071434 -18.67495688 -0.56024871 0 0 Z " fill="#476644" transform="translate(749,161)"/>
<path d="M0 0 C0.71482146 2.55293379 1.0746809 4.83642609 1.3125 7.5 C1.67333919 11.05665907 1.67333919 11.05665907 4.0625 13.0625 C4.701875 13.701875 5.34125 14.34125 6 15 C6 16.98 6 18.96 6 21 C0.39 21 -5.22 21 -11 21 C-15.15178571 9.88392857 -15.15178571 9.88392857 -16 5 C-12.93882432 2.37613513 -12.26826873 2 -8 2 C-7.67 1.34 -7.34 0.68 -7 0 C-3.86650268 -1.04449911 -3.01031744 -0.93423645 0 0 Z " fill="#302F2F" transform="translate(82,699)"/>
<path d="M0 0 C0.91007813 0.00902344 1.82015625 0.01804687 2.7578125 0.02734375 C3.80582031 0.04474609 3.80582031 0.04474609 4.875 0.0625 C4.875 1.0525 4.875 2.0425 4.875 3.0625 C3.225 3.3925 1.575 3.7225 -0.125 4.0625 C1.195 5.3825 2.515 6.7025 3.875 8.0625 C1.565 8.3925 -0.745 8.7225 -3.125 9.0625 C-3.125 9.7225 -3.125 10.3825 -3.125 11.0625 C-1.145 11.7225 0.835 12.3825 2.875 13.0625 C3.125 15.375 3.125 15.375 2.875 18.0625 C1.55232273 19.07655257 0.21775169 20.07518258 -1.125 21.0625 C-2.40508262 24.15027172 -2.40508262 24.15027172 -3.125 27.0625 C-4.775 27.3925 -6.425 27.7225 -8.125 28.0625 C-6.805 28.7225 -5.485 29.3825 -4.125 30.0625 C-4.125 31.7125 -4.125 33.3625 -4.125 35.0625 C-7.095 35.0625 -10.065 35.0625 -13.125 35.0625 C-12.795 31.4325 -12.465 27.8025 -12.125 24.0625 C-9.485 24.3925 -6.845 24.7225 -4.125 25.0625 C-5.79454819 21.83845022 -5.79454819 21.83845022 -8.75 21.375 C-9.53375 21.271875 -10.3175 21.16875 -11.125 21.0625 C-10.795 20.0725 -10.465 19.0825 -10.125 18.0625 C-8.805 18.0625 -7.485 18.0625 -6.125 18.0625 C-7.445 17.7325 -8.765 17.4025 -10.125 17.0625 C-10.125 16.0725 -10.125 15.0825 -10.125 14.0625 C-7.815 14.0625 -5.505 14.0625 -3.125 14.0625 C-4.3625 13.44375 -4.3625 13.44375 -5.625 12.8125 C-6.45 12.235 -7.275 11.6575 -8.125 11.0625 C-8.125 9.7425 -8.125 8.4225 -8.125 7.0625 C-6.475 6.7325 -4.825 6.4025 -3.125 6.0625 C-4.445 5.4025 -5.765 4.7425 -7.125 4.0625 C-7.125 3.0725 -7.125 2.0825 -7.125 1.0625 C-4.60024538 -0.19987731 -2.81299534 -0.03606404 0 0 Z " fill="#212221" transform="translate(891.125,311.9375)"/>
<path d="M0 0 C2.29944856 2.29944856 2.75117696 3.82529414 3.7265625 6.90234375 C4.0359375 7.87494141 4.3453125 8.84753906 4.6640625 9.84960938 C4.98117187 10.86861328 5.29828125 11.88761719 5.625 12.9375 C5.94984375 13.95263672 6.2746875 14.96777344 6.609375 16.01367188 C9 23.60239955 9 23.60239955 9 27 C3.39 27 -2.22 27 -8 27 C-5.83955554 17.78968412 -3.08626964 8.92944418 0 0 Z " fill="#071008" transform="translate(541,482)"/>
<path d="M0 0 C0.28789094 7.48516439 0.28789094 7.48516439 -2 11 C-3.83984375 12.23046875 -3.83984375 12.23046875 -5.9375 13.1875 C-6.62714844 13.51105469 -7.31679687 13.83460937 -8.02734375 14.16796875 C-12.19381317 15.9253113 -14.59245272 15.95816245 -19 15 C-20 14 -20 14 -20.3125 11.6875 C-20 9 -20 9 -18.25 6.6875 C-16 5 -16 5 -12 5 C-12 4.34 -12 3.68 -12 3 C-10.5682384 2.30062798 -9.12932968 1.61587282 -7.6875 0.9375 C-6.88699219 0.55464844 -6.08648438 0.17179687 -5.26171875 -0.22265625 C-3 -1 -3 -1 0 0 Z " fill="#2E2D2B" transform="translate(1239,34)"/>
<path d="M0 0 C6.6572568 2.5908106 11.29025457 5.11312057 14.3203125 11.76171875 C15.45698953 15.50491381 15.32220654 19.13352153 15 23 C9.4570302 21.54826981 5.03329095 19.18315203 1.8671875 14.2265625 C0.7573768 11.37704853 0.57369927 8.79672208 0.375 5.75 C0.30023437 4.67234375 0.22546875 3.5946875 0.1484375 2.484375 C0.09945312 1.66453125 0.05046875 0.8446875 0 0 Z " fill="#F5F6F4" transform="translate(587,234)"/>
<path d="M0 0 C-0.08772455 1.89666526 -0.19591301 3.79238993 -0.3125 5.6875 C-0.37050781 6.74324219 -0.42851563 7.79898438 -0.48828125 8.88671875 C-1.19196639 13.16791764 -2.57342855 15.85591795 -5.97265625 18.58203125 C-7.00712891 19.19111328 -7.00712891 19.19111328 -8.0625 19.8125 C-9.10083984 20.44091797 -9.10083984 20.44091797 -10.16015625 21.08203125 C-12 22 -12 22 -14 22 C-14.61898212 12.33700138 -14.61898212 12.33700138 -12.4375 7.625 C-5.35714286 0 -5.35714286 0 0 0 Z " fill="#F9FAF9" transform="translate(683,234)"/>
<path d="M0 0 C-0.33 2.64 -0.66 5.28 -1 8 C-1.33 8 -1.66 8 -2 8 C-2.495 5.525 -2.495 5.525 -3 3 C-8.43961977 0.69039095 -13.10716763 0.84897195 -18.875 1.1875 C-19.73480469 1.21908203 -20.59460938 1.25066406 -21.48046875 1.28320312 C-27.23687907 1.584563 -31.7032499 2.72666717 -37 5 C-38.155 5.474375 -39.31 5.94875 -40.5 6.4375 C-47.69448156 9.64932212 -53.7963756 13.11269086 -60 18 C-61.331096 19.00297618 -62.66383416 20.00378786 -64 21 C-60.37322407 12.49974391 -50.88753728 7.09367797 -43 3 C-42.13890625 2.51144531 -41.2778125 2.02289063 -40.390625 1.51953125 C-30.09811839 -3.44590775 -10.14977666 -6.01351346 0 0 Z " fill="#597E54" transform="translate(608,213)"/>
<path d="M0 0 C3 1 3 1 4.16796875 3.15234375 C6.85531856 10.49364803 8.5376346 17.38709621 6 25 C4.08984375 24.77734375 4.08984375 24.77734375 2 24 C1.12890625 22.06640625 1.12890625 22.06640625 0.5625 19.5625 C-0.8965827 13.94503159 -3.25784429 9.09412325 -6 4 C-3.1875 1.9375 -3.1875 1.9375 0 0 Z " fill="#4A6846" transform="translate(646,362)"/>
<path d="M0 0 C2.95950142 1.37405423 5.41495396 3.01776932 8 5 C7.51789062 5.94101562 7.03578125 6.88203125 6.5390625 7.8515625 C5.9008253 9.10926522 5.2628166 10.36708392 4.625 11.625 C4.30789063 12.24246094 3.99078125 12.85992187 3.6640625 13.49609375 C1.76407197 17.25649167 0.23211496 20.95517816 -1 25 C-2.32 24.67 -3.64 24.34 -5 24 C-5.48194844 15.45880267 -5.06653464 8.64312534 -1 1 C-0.67 0.67 -0.34 0.34 0 0 Z " fill="#4B6946" transform="translate(624,363)"/>
<path d="M0 0 C0 0.66 0 1.32 0 2 C-1.3983022 1.57045619 -2.79353907 1.13092966 -4.1875 0.6875 C-4.96480469 0.44386719 -5.74210938 0.20023438 -6.54296875 -0.05078125 C-9 -1 -9 -1 -11.296875 -2.43359375 C-20.93992453 -8.02154586 -32.11651483 -9.98186921 -43 -8 C-44.37466434 -7.83058714 -45.74961603 -7.66346777 -47.125 -7.5 C-49.93215397 -7.1536513 -49.93215397 -7.1536513 -52 -6 C-51.67 -7.65 -51.34 -9.3 -51 -11 C-31.34112983 -14.20961146 -16.83104269 -9.59113359 0 0 Z " fill="#5A7F55" transform="translate(715,222)"/>
<path d="M0 0 C1.52519276 0.08937803 3.04681929 0.24537146 4.5625 0.4375 C5.38878906 0.53933594 6.21507812 0.64117187 7.06640625 0.74609375 C7.70449219 0.82988281 8.34257813 0.91367187 9 1 C9.33 1.99 9.66 2.98 10 4 C8.68 4.33 7.36 4.66 6 5 C6 4.34 6 3.68 6 3 C4.35 3 2.7 3 1 3 C2.63473516 6.12474627 2.63473516 6.12474627 5.125 6.6875 C5.74375 6.790625 6.3625 6.89375 7 7 C6.125 11.875 6.125 11.875 5 13 C3.00041636 13.04080783 0.99954746 13.04254356 -1 13 C-0.67 13.66 -0.34 14.32 0 15 C0.61875 14.814375 1.2375 14.62875 1.875 14.4375 C4 14 4 14 6 15 C5.67 16.65 5.34 18.3 5 20 C4.34 20 3.68 20 3 20 C3 19.01 3 18.02 3 17 C2.34 17 1.68 17 1 17 C1 17.66 1 18.32 1 19 C-0.32 19 -1.64 19 -3 19 C-3.37379162 6.16648765 -3.37379162 6.16648765 -1 1 C-0.67 0.67 -0.34 0.34 0 0 Z " fill="#20201F" transform="translate(890,286)"/>
<path d="M0 0 C0.66 0.66 1.32 1.32 2 2 C1.8974587 4.97369759 0.79935496 6.2575329 -1.0390625 8.6171875 C-4.9545055 11.76813767 -7.46369766 11.59415519 -12.3125 11.3125 C-13.05306641 11.28994141 -13.79363281 11.26738281 -14.55664062 11.24414062 C-16.37197357 11.1855815 -18.18625681 11.09590886 -20 11 C-16.25 4.25 -16.25 4.25 -14 2 C-10.875 2.375 -10.875 2.375 -8 3 C-8 3.66 -8 4.32 -8 5 C-4.04 2.525 -4.04 2.525 0 0 Z " fill="#22201C" transform="translate(636,709)"/>
<path d="M0 0 C0.66 0.66 1.32 1.32 2 2 C1.625 4.625 1.625 4.625 1 7 C1.66 7.33 2.32 7.66 3 8 C3 10.31 3 12.62 3 15 C3.66 15 4.32 15 5 15 C5 15.99 5 16.98 5 18 C4.01 18 3.02 18 2 18 C1.67 18.99 1.34 19.98 1 21 C2.65 21 4.3 21 6 21 C4.8125 22.5 4.8125 22.5 3 24 C0.3125 24.1875 0.3125 24.1875 -2 24 C-4.125 19.375 -4.125 19.375 -3 16 C-3 16.66 -3 17.32 -3 18 C-2.34 18 -1.68 18 -1 18 C-0.67 16.68 -0.34 15.36 0 14 C0.66 14 1.32 14 2 14 C2 13.01 2 12.02 2 11 C-0.31 11.33 -2.62 11.66 -5 12 C-5 11.01 -5 10.02 -5 9 C-4.34 8.67 -3.68 8.34 -3 8 C-3.33 7.01 -3.66 6.02 -4 5 C-4.33 5.99 -4.66 6.98 -5 8 C-5.66 8 -6.32 8 -7 8 C-7.6875 5.6875 -7.6875 5.6875 -8 3 C-5.93469402 -0.32743741 -3.72952011 -0.4781436 0 0 Z " fill="#202020" transform="translate(1041,671)"/>
<path d="M0 0 C1.19882812 0.00483398 1.19882812 0.00483398 2.421875 0.00976562 C3.246875 0.01814453 4.071875 0.02652344 4.921875 0.03515625 C5.76234375 0.03966797 6.6028125 0.04417969 7.46875 0.04882812 C9.53648901 0.06057664 11.60419124 0.07851103 13.671875 0.09765625 C13.671875 0.42765625 13.671875 0.75765625 13.671875 1.09765625 C12.91003906 1.14664063 12.14820313 1.195625 11.36328125 1.24609375 C-8.03803384 2.65093304 -25.26689595 9.17433752 -38.328125 24.09765625 C-39.81373619 26.0557799 -41.07780985 27.97755665 -42.328125 30.09765625 C-42.658125 29.10765625 -42.988125 28.11765625 -43.328125 27.09765625 C-42.42320312 26.10185547 -42.42320312 26.10185547 -41.5 25.0859375 C-40.70078125 24.20292969 -39.9015625 23.31992188 -39.078125 22.41015625 C-38.28921875 21.54003906 -37.5003125 20.66992188 -36.6875 19.7734375 C-35.14661955 18.0259158 -33.65238942 16.23581235 -32.21484375 14.40234375 C-28.70887361 10.11968871 -24.36648246 8.08336184 -19.328125 6.09765625 C-16.52675924 4.82214078 -13.73772209 3.52211425 -10.94921875 2.21875 C-7.21118885 0.61992052 -4.06099798 -0.02900713 0 0 Z " fill="#699463" transform="translate(583.328125,213.90234375)"/>
<path d="M0 0 C0 0.66 0 1.32 0 2 C2.97 2.99 5.94 3.98 9 5 C6 6 6 6 3.6875 5.0625 C0.57122373 3.8304838 -1.66517988 3.9333036 -5 4 C-7.33764285 3.69836866 -9.67258011 3.37238718 -12 3 C-12.33 3.66 -12.66 4.32 -13 5 C-12.01 5 -11.02 5 -10 5 C-10.66 7.97 -11.32 10.94 -12 14 C-12.66 13.34 -13.32 12.68 -14 12 C-14.99 12.66 -15.98 13.32 -17 14 C-19.1875 13.625 -19.1875 13.625 -21 13 C-20.67 11.35 -20.34 9.7 -20 8 C-18.68 8 -17.36 8 -16 8 C-15.34 5.69 -14.68 3.38 -14 1 C-4.58997722 -0.14806378 -4.58997722 -0.14806378 0 0 Z M-6 4 C-5.34 4.66 -4.68 5.32 -4 6 C-4.66 6 -5.32 6 -6 6 C-6 5.34 -6 4.68 -6 4 Z " fill="#1D1D1E" transform="translate(1212,532)"/>
<path d="M0 0 C0.66 0.99 1.32 1.98 2 3 C4.20725073 3.36362818 4.20725073 3.36362818 6.625 3.1875 C7.44226563 3.16042969 8.25953125 3.13335937 9.1015625 3.10546875 C9.72804688 3.07066406 10.35453125 3.03585937 11 3 C10.67 3.66 10.34 4.32 10 5 C9.01 5.33 8.02 5.66 7 6 C7.99 6.66 8.98 7.32 10 8 C10.39507893 12.34586828 10.45331002 14.32003497 8 18 C5.36 17.67 2.72 17.34 0 17 C-0.125 14.625 -0.125 14.625 0 12 C0.66 11.34 1.32 10.68 2 10 C4.0625 10.4375 4.0625 10.4375 6 11 C6.33 10.67 6.66 10.34 7 10 C6.34 9.67 5.68 9.34 5 9 C5 8.34 5 7.68 5 7 C4.195625 6.7525 3.39125 6.505 2.5625 6.25 C0 5 0 5 -0.875 2.9375 C-0.91625 2.298125 -0.9575 1.65875 -1 1 C-0.67 0.67 -0.34 0.34 0 0 Z " fill="#212120" transform="translate(874,346)"/>
<path d="M0 0 C0.66 0.33 1.32 0.66 2 1 C2 2.32 2 3.64 2 5 C1.34 5 0.68 5 0 5 C0 5.66 0 6.32 0 7 C1.32 7 2.64 7 4 7 C4.33 9.31 4.66 11.62 5 14 C1.91190305 15.76462683 0.76687864 16 -3 16 C-2.67 15.01 -2.34 14.02 -2 13 C-0.68 13 0.64 13 2 13 C2 12.34 2 11.68 2 11 C-0.31 11 -2.62 11 -5 11 C-6.31626692 7.38026598 -7 4.90432869 -7 1 C-5.35 1 -3.7 1 -2 1 C-2 1.66 -2 2.32 -2 3 C-1.34 3 -0.68 3 0 3 C0 2.01 0 1.02 0 0 Z " fill="#1E1E1E" transform="translate(1026,617)"/>
<path d="M0 0 C0 0.99 0 1.98 0 3 C-3 5.1875 -3 5.1875 -6 7 C-2.535 8.485 -2.535 8.485 1 10 C1 10.99 1 11.98 1 13 C-2.67410785 14.17571451 -6.16929183 14.07366746 -10 14 C-9.34 13.01 -8.68 12.02 -8 11 C-8.99 10.34 -9.98 9.68 -11 9 C-11 8.34 -11 7.68 -11 7 C-10.01 6.34 -9.02 5.68 -8 5 C-9.32 4.67 -10.64 4.34 -12 4 C-11.67 3.01 -11.34 2.02 -11 1 C-7.27569643 0.30710631 -3.78916254 -0.11144596 0 0 Z " fill="#222221" transform="translate(887,369)"/>
<path d="M0 0 C1.32 0.33 2.64 0.66 4 1 C3.67 2.32 3.34 3.64 3 5 C1.02 5 -0.96 5 -3 5 C-3.33 5.66 -3.66 6.32 -4 7 C-1.36 7 1.28 7 4 7 C4.125 9.375 4.125 9.375 4 12 C2 14 2 14 -1.125 14.125 C-2.07375 14.08375 -3.0225 14.0425 -4 14 C-5.19287411 10.12315913 -6 7.08378077 -6 3 C-4.02 2.67 -2.04 2.34 0 2 C0 1.34 0 0.68 0 0 Z " fill="#232323" transform="translate(1046,695)"/>
<path d="M0 0 C2.61580479 0.3269756 4.64078137 0.82039068 7 2 C7.20086443 5.71599191 7.1519437 6.77208445 5 10 C4.83286431 12.62531524 4.83286431 12.62531524 5 15 C4.34 14.67 3.68 14.34 3 14 C3 13.34 3 12.68 3 12 C1.02 12 -0.96 12 -3 12 C-3 11.01 -3 10.02 -3 9 C-1.68 9 -0.36 9 1 9 C0.67 8.34 0.34 7.68 0 7 C-0.66 7 -1.32 7 -2 7 C-2.125 4.625 -2.125 4.625 -2 2 C-1.34 1.34 -0.68 0.68 0 0 Z " fill="#20201F" transform="translate(896,260)"/>
<path d="M0 0 C0.66 0 1.32 0 2 0 C2 0.99 2 1.98 2 3 C2.99 2.34 3.98 1.68 5 1 C6.32 1 7.64 1 9 1 C9 2.98 9 4.96 9 7 C9.99 7.33 10.98 7.66 12 8 C12 8.99 12 9.98 12 11 C10.39504433 10.88557539 8.79101881 10.75805306 7.1875 10.625 C5.84751953 10.52058594 5.84751953 10.52058594 4.48046875 10.4140625 C2 10 2 10 -1 8 C-0.67 5.36 -0.34 2.72 0 0 Z " fill="#181818" transform="translate(891,275)"/>
<path d="M0 0 C-0.99 0.5259375 -0.99 0.5259375 -2 1.0625 C-4.34472901 2.90055509 -4.34472901 2.90055509 -4.20703125 6.12890625 C-3.99338025 10.1237768 -3.43796248 13.95499677 -2.6875 17.875 C-2.55432373 18.60243408 -2.42114746 19.32986816 -2.28393555 20.0793457 C-1.86136555 22.38726609 -1.43125757 24.69368853 -1 27 C-0.43043542 30.06125033 0.13063801 33.12391688 0.6875 36.1875 C0.81874268 36.88149902 0.94998535 37.57549805 1.08520508 38.29052734 C1.80418251 42.24562652 2.13122414 45.98204188 2 50 C0.54582877 47.31341783 -0.34469378 44.95919258 -0.86962891 41.95336914 C-1.00962311 41.16897964 -1.14961731 40.38459015 -1.29385376 39.57643127 C-1.43664764 38.73781052 -1.57944153 37.89918976 -1.7265625 37.03515625 C-1.87910492 36.16483261 -2.03164734 35.29450897 -2.18881226 34.39781189 C-2.50943811 32.56008611 -2.82696455 30.72181724 -3.14160156 28.88305664 C-3.6228776 26.07488388 -4.11534982 23.26884539 -4.609375 20.46289062 C-4.91993969 18.67459519 -5.22985712 16.88618721 -5.5390625 15.09765625 C-5.68590485 14.26105972 -5.83274719 13.4244632 -5.98403931 12.56251526 C-6.64585727 8.6638715 -7.18778313 4.97206517 -7 1 C-3.375 -1.125 -3.375 -1.125 0 0 Z " fill="#1C1B1A" transform="translate(502,564)"/>
<path d="M0 0 C0.99773438 0.02320313 1.99546875 0.04640625 3.0234375 0.0703125 C4.52777344 0.09738281 4.52777344 0.09738281 6.0625 0.125 C6.83335937 0.14820313 7.60421875 0.17140625 8.3984375 0.1953125 C8.3984375 1.1853125 8.3984375 2.1753125 8.3984375 3.1953125 C5.0984375 3.5253125 1.7984375 3.8553125 -1.6015625 4.1953125 C-1.9315625 5.1853125 -2.2615625 6.1753125 -2.6015625 7.1953125 C0.6984375 7.1953125 3.9984375 7.1953125 7.3984375 7.1953125 C7.3984375 8.1853125 7.3984375 9.1753125 7.3984375 10.1953125 C5.77379908 10.24926728 4.14865209 10.28808445 2.5234375 10.3203125 C1.61851562 10.34351563 0.71359375 10.36671875 -0.21875 10.390625 C-2.6015625 10.1953125 -2.6015625 10.1953125 -4.6015625 8.1953125 C-4.8515625 5.1953125 -4.8515625 5.1953125 -4.6015625 2.1953125 C-2.6015625 0.1953125 -2.6015625 0.1953125 0 0 Z " fill="#20201E" transform="translate(901.6015625,226.8046875)"/>
<path d="M0 0 C-0.66 2.97 -1.32 5.94 -2 9 C-4.64 9 -7.28 9 -10 9 C-10.625 6.125 -10.625 6.125 -11 3 C-7.75987532 -0.24012468 -4.46544827 0 0 0 Z " fill="#1C1D1C" transform="translate(893,402)"/>
<path d="M0 0 C2.97 0 5.94 0 9 0 C9.125 2.875 9.125 2.875 9 6 C8.34 6.66 7.68 7.32 7 8 C7.33 8.99 7.66 9.98 8 11 C5.36 11 2.72 11 0 11 C0 9 0 7 0 5 C2.31 5 4.62 5 7 5 C6.10664203 2.64214682 6.10664203 2.64214682 2.9375 1.875 C1.968125 1.58625 0.99875 1.2975 0 1 C0 0.67 0 0.34 0 0 Z " fill="#222221" transform="translate(896,239)"/>
<path d="M0 0 C0.33 1.65 0.66 3.3 1 5 C-3.43076923 8.07692308 -3.43076923 8.07692308 -6.3125 7.6875 C-6.869375 7.460625 -7.42625 7.23375 -8 7 C-8.33 5.35 -8.66 3.7 -9 2 C-3.375 0 -3.375 0 0 0 Z " fill="#20201F" transform="translate(896,192)"/>
<path d="M0 0 C1.60332791 -0.08121924 3.20784026 -0.13929134 4.8125 -0.1875 C6.15248047 -0.23970703 6.15248047 -0.23970703 7.51953125 -0.29296875 C10.41647515 0.04918998 11.22555028 0.75393573 13 3 C12.360625 3.556875 11.72125 4.11375 11.0625 4.6875 C8.80319013 7.22066561 8.36850953 8.68341424 8 12 C7.67 12 7.34 12 7 12 C7 10.02 7 8.04 7 6 C5.68 5.67 4.36 5.34 3 5 C3.33 4.67 3.66 4.34 4 4 C2.68 3.67 1.36 3.34 0 3 C0 2.01 0 1.02 0 0 Z " fill="#131413" transform="translate(881,326)"/>
<path d="M0 0 C0 0.33 0 0.66 0 1 C-1.175625 1.12375 -2.35125 1.2475 -3.5625 1.375 C-7.51865577 1.86255441 -11.1708997 2.88607991 -15 4 C-17.33177975 4.34403308 -19.66487041 4.67949202 -22 5 C-22.99 5.495 -22.99 5.495 -24 6 C-23.67 4.35 -23.34 2.7 -23 1 C-15.34916042 -0.24911667 -7.72559014 -0.09053426 0 0 Z " fill="#557951" transform="translate(687,210)"/>
<path d="M0 0 C-2.46278801 2.46278801 -4.70676982 2.99771255 -8 4 C-8 4.99 -8 5.98 -8 7 C-2.555 6.505 -2.555 6.505 3 6 C3 6.66 3 7.32 3 8 C-0.90028225 10.60018816 -4.47434569 10.15085514 -9 10 C-10.39431504 7.21136993 -10.25660094 5.07921132 -10 2 C-6.3558226 -0.4294516 -4.28758728 -0.16179575 0 0 Z " fill="#242423" transform="translate(1036,638)"/>
<path d="M0 0 C-0.33 0.99 -0.66 1.98 -1 3 C-1.99 3.33 -2.98 3.66 -4 4 C-3.34 4.33 -2.68 4.66 -2 5 C-2 5.66 -2 6.32 -2 7 C-4.97 6.505 -4.97 6.505 -8 6 C-8.33 6.99 -8.66 7.98 -9 9 C-9.66 9 -10.32 9 -11 9 C-10.67 7.35 -10.34 5.7 -10 4 C-10.66 4 -11.32 4 -12 4 C-12 3.34 -12 2.68 -12 2 C-7.8803623 0.70756464 -4.33168317 -0.26252625 0 0 Z " fill="#212121" transform="translate(892,393)"/>
<path d="M0 0 C1.6415049 3.2830098 0.51888624 6.42545033 0 10 C-0.66 8.68 -1.32 7.36 -2 6 C-4.853312 7.50591467 -6.80780106 8.75478067 -8.8125 11.3125 C-11.73201572 14.8993336 -15.24135382 17.34522806 -19 20 C-19.66 19.67 -20.32 19.34 -21 19 C-20.55269531 18.62488281 -20.10539063 18.24976563 -19.64453125 17.86328125 C-15.9275104 14.71689047 -12.40373721 11.48883064 -9 8 C-7.77380214 6.74708759 -6.54448316 5.49722419 -5.3125 4.25 C-4.44044922 3.36054688 -4.44044922 3.36054688 -3.55078125 2.453125 C-2 1 -2 1 0 0 Z " fill="#1B1C18" transform="translate(813,478)"/>
<path d="M0 0 C1.67542976 0.28604898 3.34385343 0.61781233 5 1 C5.66 2.98 6.32 4.96 7 7 C5.25 8.125 5.25 8.125 3 9 C0.75 8.125 0.75 8.125 -1 7 C-1.04254356 5.00045254 -1.04080783 2.99958364 -1 1 C-0.67 0.67 -0.34 0.34 0 0 Z " fill="#272522" transform="translate(855,617)"/>
<path d="M0 0 C0.99 0.33 1.98 0.66 3 1 C3 2.65 3 4.3 3 6 C0.70221327 7.3950848 -0.4792967 8.07438619 -3.1875 7.6875 C-5 7 -5 7 -6 6 C-6.04063832 4.33382885 -6.042721 2.66611905 -6 1 C-4.7934375 1.2475 -4.7934375 1.2475 -3.5625 1.5 C-1.2715557 2.03191839 -1.2715557 2.03191839 0 2 C0 1.34 0 0.68 0 0 Z " fill="#212120" transform="translate(1020,604)"/>
<path d="M0 0 C0.625 3.375 0.625 3.375 1 7 C-1 9 -1 9 -4.125 9.125 C-5.07375 9.08375 -6.0225 9.0425 -7 9 C-7 8.34 -7 7.68 -7 7 C-5.35 6.67 -3.7 6.34 -2 6 C-2 5.01 -2 4.02 -2 3 C-4.31 3.33 -6.62 3.66 -9 4 C-9 3.34 -9 2.68 -9 2 C-2.25 0 -2.25 0 0 0 Z " fill="#202020" transform="translate(1036,649)"/>
<path d="M0 0 C-3 2 -3 2 -6.25 2.875 C-10.48957077 4.14687123 -13.35158092 5.49618298 -17 8 C-18.49113354 10.5908295 -18.49113354 10.5908295 -19 13 C-19.33 13 -19.66 13 -20 13 C-20 11.02 -20 9.04 -20 7 C-18.35 6.34 -16.7 5.68 -15 5 C-15 4.34 -15 3.68 -15 3 C-10.9819352 -1.0180648 -5.30867798 -1.91112407 0 0 Z " fill="#1C1E1A" transform="translate(1202,450)"/>
<path d="M0 0 C0.66 0 1.32 0 2 0 C2.33 1.65 2.66 3.3 3 5 C-1.625 8 -1.625 8 -5 8 C-5.33 5.69 -5.66 3.38 -6 1 C-4.7934375 1.2475 -4.7934375 1.2475 -3.5625 1.5 C-1.2715557 2.03191839 -1.2715557 2.03191839 0 2 C0 1.34 0 0.68 0 0 Z " fill="#212121" transform="translate(899,204)"/>
<path d="M0 0 C-2.8125 1.5625 -2.8125 1.5625 -6 3 C-6.99 2.67 -7.98 2.34 -9 2 C-3.375 -1.125 -3.375 -1.125 0 0 Z M-11 3 C-9 4 -9 4 -9 4 Z M-13 4 C-12.34 4.33 -11.68 4.66 -11 5 C-11.969375 5.598125 -12.93875 6.19625 -13.9375 6.8125 C-17.23052042 8.71127509 -17.23052042 8.71127509 -18 12 C-21.66881155 11.29445932 -24.70450534 9.72264494 -28 8 C-28 7.34 -28 6.68 -28 6 C-27.07767578 6.26876953 -27.07767578 6.26876953 -26.13671875 6.54296875 C-25.32847656 6.75566406 -24.52023437 6.96835938 -23.6875 7.1875 C-22.88699219 7.40792969 -22.08648438 7.62835938 -21.26171875 7.85546875 C-18.93299903 8.26945325 -18.93299903 8.26945325 -17.39453125 6.61328125 C-16.70423828 5.81470703 -16.70423828 5.81470703 -16 5 C-15.01 4.67 -14.02 4.34 -13 4 Z " fill="#1D1B1A" transform="translate(1204,137)"/>
<path d="M0 0 C0.625 1.8125 0.625 1.8125 1 4 C0.01 5.485 0.01 5.485 -1 7 C-1.33 5.35 -1.66 3.7 -2 2 C-3.46015291 2.28241641 -4.91809793 2.57626614 -6.375 2.875 C-7.59316406 3.11863281 -7.59316406 3.11863281 -8.8359375 3.3671875 C-11.18673923 3.86658932 -11.18673923 3.86658932 -13 6 C-13.69748583 7.31747324 -14.36959957 8.64914193 -15 10 C-15.33 8.35 -15.66 6.7 -16 5 C-12.93882432 2.37613513 -12.26826873 2 -8 2 C-7.67 1.34 -7.34 0.68 -7 0 C-3.86650268 -1.04449911 -3.01031744 -0.93423645 0 0 Z " fill="#222020" transform="translate(82,699)"/>
<path d="M0 0 C1.65 0 3.3 0 5 0 C5.66 2.31 6.32 4.62 7 7 C5.35 7.33 3.7 7.66 2 8 C-0.1519437 4.77208445 -0.20086443 3.71599191 0 0 Z " fill="#252521" transform="translate(834,590)"/>
<path d="M0 0 C1 1 1 1 1.0625 4.0625 C1.041875 5.031875 1.02125 6.00125 1 7 C-1.95664519 8.4783226 -4.74229737 8.06032783 -8 8 C-6.75 6.5 -6.75 6.5 -5 5 C-3.68 5 -2.36 5 -1 5 C-1.33 4.34 -1.66 3.68 -2 3 C-5.02934491 2.34227572 -5.02934491 2.34227572 -8 2 C-4.77786243 -0.14809171 -3.72224599 -0.29386153 0 0 Z " fill="#212121" transform="translate(905,212)"/>
<path d="M0 0 C2.625 -0.1875 2.625 -0.1875 5 0 C1.79843579 4.99067362 -0.31642687 7.75300597 -6 10 C-6 8.35 -6 6.7 -6 5 C-5.38125 4.731875 -4.7625 4.46375 -4.125 4.1875 C-1.7004767 3.04443152 -1.7004767 3.04443152 0 0 Z " fill="#1F1A19" transform="translate(1245,444)"/>
<path d="M0 0 C-2.10260341 1.14878332 -4.20696539 2.29411192 -6.3125 3.4375 C-6.90740234 3.76298828 -7.50230469 4.08847656 -8.11523438 4.42382812 C-10.72373626 5.83737384 -13.17845899 7.05948633 -16 8 C-16 7.01 -16 6.02 -16 5 C-15.34 5 -14.68 5 -14 5 C-14 4.34 -14 3.68 -14 3 C-12 2.33333333 -10 1.66666667 -8 1 C-6.9275 0.608125 -5.855 0.21625 -4.75 -0.1875 C-2 -1 -2 -1 0 0 Z " fill="#232322" transform="translate(1088,82)"/>
<path d="M0 0 C2.31 0 4.62 0 7 0 C7 0.66 7 1.32 7 2 C6.01 2 5.02 2 4 2 C4 2.66 4 3.32 4 4 C4.99 4.33 5.98 4.66 7 5 C7 5.66 7 6.32 7 7 C3.62537285 6.45276317 1.91765 5.9451 -1 4 C-0.67 2.68 -0.34 1.36 0 0 Z " fill="#222120" transform="translate(897,253)"/>
<path d="M0 0 C1.65 0.33 3.3 0.66 5 1 C5 1.99 5 2.98 5 4 C2.01758453 4.77321882 -0.97580475 5.41196203 -4 6 C-4.33 4.35 -4.66 2.7 -5 1 C-4.34 1 -3.68 1 -3 1 C-3 1.66 -3 2.32 -3 3 C-2.34 3 -1.68 3 -1 3 C-0.67 2.01 -0.34 1.02 0 0 Z " fill="#1F201F" transform="translate(1048,710)"/>
<path d="M0 0 C0 1.98 0 3.96 0 6 C0.66 6 1.32 6 2 6 C1.67 7.32 1.34 8.64 1 10 C-0.9451 7.08235 -1.45276317 5.37462715 -2 2 C-2.68707031 2.2165625 -3.37414062 2.433125 -4.08203125 2.65625 C-5.43361328 3.07390625 -5.43361328 3.07390625 -6.8125 3.5 C-8.15248047 3.91765625 -8.15248047 3.91765625 -9.51953125 4.34375 C-12 5 -12 5 -15 5 C-15 4.34 -15 3.68 -15 3 C-13.948125 2.87625 -12.89625 2.7525 -11.8125 2.625 C-7.65899084 1.94409686 -4.1720966 0 0 0 Z " fill="#232420" transform="translate(72,667)"/>
<path d="M0 0 C-1 3 -1 3 -3 4 C-2.01 4.33 -1.02 4.66 0 5 C0 5.66 0 6.32 0 7 C-2.64 7 -5.28 7 -8 7 C-7.62005832 4.24542282 -7.1926367 3.17979426 -5.125 1.25 C-3 0 -3 0 0 0 Z " fill="#202020" transform="translate(1040,662)"/>
<path d="M0 0 C1.4540625 0.0309375 1.4540625 0.0309375 2.9375 0.0625 C2.6075 0.7225 2.2775 1.3825 1.9375 2.0625 C0.2875 2.0625 -1.3625 2.0625 -3.0625 2.0625 C-3.0625 3.0525 -3.0625 4.0425 -3.0625 5.0625 C-0.7525 5.0625 1.5575 5.0625 3.9375 5.0625 C3.9375 5.7225 3.9375 6.3825 3.9375 7.0625 C1.22870665 8.41689668 -1.07183268 8.12751451 -4.0625 8.0625 C-4.10491723 5.72955225 -4.10342937 3.39547433 -4.0625 1.0625 C-3.0625 0.0625 -3.0625 0.0625 0 0 Z " fill="#232222" transform="translate(883.0625,384.9375)"/>
<path d="M0 0 C-11.05491329 5.06069364 -11.05491329 5.06069364 -15 6 C-15.99 5.34 -16.98 4.68 -18 4 C-13.00695733 0.33843537 -6.00005681 -2.00001894 0 0 Z " fill="#20211D" transform="translate(843,258)"/>
<path d="M0 0 C0.66 0.33 1.32 0.66 2 1 C2 3.31 2 5.62 2 8 C1.01 8.33 0.02 8.66 -1 9 C-3.1519437 5.77208445 -3.20086443 4.71599191 -3 1 C-2.01 0.67 -1.02 0.34 0 0 Z " fill="#20231E" transform="translate(823,544)"/>
<path d="M0 0 C0.7265625 1.70703125 0.7265625 1.70703125 1 4 C-0.4765625 6.32421875 -0.4765625 6.32421875 -2.625 8.6875 C-3.31851562 9.47511719 -4.01203125 10.26273437 -4.7265625 11.07421875 C-7.22257257 13.18853656 -8.78716932 13.66744384 -12 14 C-12 13.34 -12 12.68 -12 12 C-9.14765168 9.47932009 -6.22395387 7.16920959 -3.1875 4.875 C-0.75168434 3.11254595 -0.75168434 3.11254595 0 0 Z " fill="#1B1917" transform="translate(1226,325)"/>
<path d="M0 0 C-0.625 1.875 -0.625 1.875 -2 4 C-5.125 5.25 -5.125 5.25 -8 6 C-7.34 7.98 -6.68 9.96 -6 12 C-8 10.875 -8 10.875 -10 9 C-10.25 5.8125 -10.25 5.8125 -10 3 C-8.70990357 2.49596232 -7.41786211 1.99690074 -6.125 1.5 C-5.04605469 1.08234375 -5.04605469 1.08234375 -3.9453125 0.65625 C-2 0 -2 0 0 0 Z " fill="#1D1C1B" transform="translate(1201,306)"/>
<path d="M0 0 C0.66 0 1.32 0 2 0 C2 0.99 2 1.98 2 3 C2.66 3 3.32 3 4 3 C4 3.66 4 4.32 4 5 C5.98 5 7.96 5 10 5 C7.78682801 7.21317199 6.93593142 7.30919261 4 8 C2.6520257 8.63654342 1.31403276 9.29605388 0 10 C0.33 8.02 0.66 6.04 1 4 C0.01 4 -0.98 4 -2 4 C-1.33333333 2.66666667 -0.66666667 1.33333333 0 0 Z " fill="#201F1E" transform="translate(1166,159)"/>
<path d="M0 0 C0 1.65 0 3.3 0 5 C0.66 5.33 1.32 5.66 2 6 C1 7 1 7 -1.5625 7.0625 C-2.7690625 7.0315625 -2.7690625 7.0315625 -4 7 C-4.33 5.02 -4.66 3.04 -5 1 C-1.125 0 -1.125 0 0 0 Z " fill="#242220" transform="translate(865,256)"/>
<path d="M0 0 C1.62371862 4.01969365 0.28079042 6.72764278 -1.25 10.625 C-1.68828125 11.77226562 -2.1265625 12.91953125 -2.578125 14.1015625 C-4 17 -4 17 -7 19 C-4.94235079 12.54646385 -2.57616518 6.2638737 0 0 Z " fill="#597E54" transform="translate(659,226)"/>
<path d="M0 0 C6.76215448 0.40939975 12.67162748 1.56953809 19 4 C18.01 5.485 18.01 5.485 17 7 C16.443125 6.73445312 15.88625 6.46890625 15.3125 6.1953125 C10.25024604 3.85230982 5.44960046 2.18900374 0 1 C0 0.67 0 0.34 0 0 Z " fill="#3F5A3B" transform="translate(537,162)"/>
<path d="M0 0 C2 3 2 3 1.625 5.1875 C1.41875 5.785625 1.2125 6.38375 1 7 C-0.32 7.33 -1.64 7.66 -3 8 C-3.33 6.02 -3.66 4.04 -4 2 C-2.68 1.34 -1.36 0.68 0 0 Z " fill="#242220" transform="translate(1238,541)"/>
<path d="M0 0 C-1.5830577 4.2742558 -4.50568404 6.26531794 -8 9 C-8.33 8.01 -8.66 7.02 -9 6 C-8.34 5.34 -7.68 4.68 -7 4 C-6.34 3.01 -5.68 2.02 -5 1 C-2 0 -2 0 0 0 Z " fill="#242622" transform="translate(767,307)"/>
<path d="M0 0 C0.66 0 1.32 0 2 0 C2 0.66 2 1.32 2 2 C3.36125 1.505 3.36125 1.505 4.75 1 C8 0 8 0 12 0 C12 0.66 12 1.32 12 2 C8.17010894 3.80230168 5.21878192 4.19622241 1 4 C0.67 2.68 0.34 1.36 0 0 Z " fill="#212121" transform="translate(1011,599)"/>
<path d="M0 0 C0.66 0.33 1.32 0.66 2 1 C1.13612745 6.1832353 -0.21249033 9.37030324 -4 13 C-4.66 13.99 -5.32 14.98 -6 16 C-5.61376151 13.21908285 -5.28980664 11.37800866 -3.5625 9.125 C-1.47524851 6.28633797 -0.84732474 3.38929895 0 0 Z " fill="#131717" transform="translate(1190,560)"/>
<path d="M0 0 C0.33 0 0.66 0 1 0 C1 2.97 1 5.94 1 9 C-1.475 8.01 -1.475 8.01 -4 7 C-2.92598892 4.08482708 -2.22189824 2.22189824 0 0 Z " fill="#21211E" transform="translate(1279,261)"/>
<path d="M0 0 C-1.40552299 1.03612271 -2.82491694 2.05344925 -4.25 3.0625 C-5.43335938 3.91521484 -5.43335938 3.91521484 -6.640625 4.78515625 C-9 6 -9 6 -11.296875 5.68359375 C-11.85890625 5.45800781 -12.4209375 5.23242188 -13 5 C-12.67 4.01 -12.34 3.02 -12 2 C-12 2.66 -12 3.32 -12 4 C-11.38511719 3.62746094 -10.77023437 3.25492187 -10.13671875 2.87109375 C-9.32847656 2.39800781 -8.52023437 1.92492187 -7.6875 1.4375 C-6.48673828 0.72400391 -6.48673828 0.72400391 -5.26171875 -0.00390625 C-3 -1 -3 -1 0 0 Z " fill="#292220" transform="translate(1087,91)"/>
<path d="M0 0 C0 0.66 0 1.32 0 2 C-1.4317616 2.69937202 -2.87067032 3.38412718 -4.3125 4.0625 C-5.51326172 4.63677734 -5.51326172 4.63677734 -6.73828125 5.22265625 C-9 6 -9 6 -12 5 C-3.81818182 0 -3.81818182 0 0 0 Z " fill="#212121" transform="translate(902,198)"/>
<path d="M0 0 C0.66 0.33 1.32 0.66 2 1 C0.61811547 4.21043882 -0.92421903 6.04936365 -3.625 8.25 C-4.25664063 8.77078125 -4.88828125 9.2915625 -5.5390625 9.828125 C-6.02117187 10.21484375 -6.50328125 10.6015625 -7 11 C-5.72278474 6.00724943 -3.82669043 3.42388092 0 0 Z " fill="#201F1E" transform="translate(1188,154)"/>
<path d="M0 0 C0 0.99 0 1.98 0 3 C-1.24420647 3.5345256 -2.49570936 4.05208611 -3.75 4.5625 C-4.44609375 4.85253906 -5.1421875 5.14257812 -5.859375 5.44140625 C-8.30012784 6.07831803 -9.6403655 5.80248831 -12 5 C-10.37750059 4.16180842 -8.75191503 3.3295884 -7.125 2.5 C-6.22007812 2.0359375 -5.31515625 1.571875 -4.3828125 1.09375 C-2 0 -2 0 0 0 Z " fill="#212122" transform="translate(1028,610)"/>
<path d="M0 0 C0.33 0.99 0.66 1.98 1 3 C1.99 2.34 2.98 1.68 4 1 C5.32 1 6.64 1 8 1 C8 2.65 8 4.3 8 6 C7.34 6 6.68 6 6 6 C5.67 5.34 5.34 4.68 5 4 C3.35 4.33 1.7 4.66 0 5 C0 3.35 0 1.7 0 0 Z " fill="#222222" transform="translate(892,275)"/>
<path d="M0 0 C1.2065625 0.0309375 1.2065625 0.0309375 2.4375 0.0625 C1.02230285 2.0968459 -0.11232123 2.96660393 -2.54296875 3.484375 C-4.54426954 3.72523952 -6.5534944 3.89782741 -8.5625 4.0625 C-8.8925 3.0725 -9.2225 2.0825 -9.5625 1.0625 C-8.1084375 1.0934375 -8.1084375 1.0934375 -6.625 1.125 C-3.22707532 1.0556546 -3.2165483 0.0784524 0 0 Z " fill="#232221" transform="translate(893.5625,186.9375)"/>
<path d="M0 0 C0.97582031 0.00902344 1.95164062 0.01804687 2.95703125 0.02734375 C3.69308594 0.03894531 4.42914062 0.05054688 5.1875 0.0625 C5.1875 0.3925 5.1875 0.7225 5.1875 1.0625 C3.62633181 1.40201619 2.06348662 1.73382544 0.5 2.0625 C-0.80517578 2.3409375 -0.80517578 2.3409375 -2.13671875 2.625 C-4.74962964 3.05222047 -7.17063038 3.13866201 -9.8125 3.0625 C-10.1425 2.4025 -10.4725 1.7425 -10.8125 1.0625 C-7.13862505 0.20951624 -3.7677607 -0.04539471 0 0 Z " fill="#21211E" transform="translate(520.8125,560.9375)"/>
<path d="M0 0 C-1.33333333 0.66666667 -2.66666667 1.33333333 -4 2 C-5.546875 2.8353125 -5.546875 2.8353125 -7.125 3.6875 C-8.07375 4.120625 -9.0225 4.55375 -10 5 C-10.66 4.67 -11.32 4.34 -12 4 C-8.14101327 -0.27244959 -5.61655982 -1.8053228 0 0 Z " fill="#1B1B19" transform="translate(1216,444)"/>
<path d="M0 0 C1.65 0 3.3 0 5 0 C5.33 1.32 5.66 2.64 6 4 C3.36 4 0.72 4 -2 4 C-1.34 2.68 -0.68 1.36 0 0 Z " fill="#1C1C1A" transform="translate(898,246)"/>
<path d="M0 0 C1.4540625 0.0309375 1.4540625 0.0309375 2.9375 0.0625 C2.6075 1.3825 2.2775 2.7025 1.9375 4.0625 C0.2875 4.3925 -1.3625 4.7225 -3.0625 5.0625 C-3.625 3.125 -3.625 3.125 -4.0625 1.0625 C-3.0625 0.0625 -3.0625 0.0625 0 0 Z " fill="#1A1A1A" transform="translate(1047.0625,701.9375)"/>
<path d="M0 0 C0 0.66 0 1.32 0 2 C-3.90028225 4.60018816 -7.47434569 4.15085514 -12 4 C-7.87571444 0.61219401 -5.3248712 0 0 0 Z " fill="#1E1E1D" transform="translate(1039,644)"/>
<path d="M0 0 C0.33 0.66 0.66 1.32 1 2 C2.98 1.67 4.96 1.34 7 1 C6.67 2.32 6.34 3.64 6 5 C5.34 5 4.68 5 4 5 C4 4.34 4 3.68 4 3 C2.35 3 0.7 3 -1 3 C-1.33 3.99 -1.66 4.98 -2 6 C-2.33 4.35 -2.66 2.7 -3 1 C-2.01 0.67 -1.02 0.34 0 0 Z " fill="#161616" transform="translate(1020,615)"/>
<path d="M0 0 C2.64 0.33 5.28 0.66 8 1 C8 1.99 8 2.98 8 4 C5.36 3.67 2.72 3.34 0 3 C0 2.01 0 1.02 0 0 Z " fill="#1E1E1E" transform="translate(881,326)"/>
<path d="M0 0 C3.3 0 6.6 0 10 0 C10 0.99 10 1.98 10 3 C7.36 3.33 4.72 3.66 2 4 C2.33 3.34 2.66 2.68 3 2 C2.01 1.34 1.02 0.68 0 0 Z " fill="#1D1D1C" transform="translate(886,312)"/>
<path d="M0 0 C0.99 0 1.98 0 3 0 C3.33 1.65 3.66 3.3 4 5 C2.68 5.33 1.36 5.66 0 6 C-0.38218767 4.34385343 -0.71395102 2.67542976 -1 1 C-0.67 0.67 -0.34 0.34 0 0 Z " fill="#161913" transform="translate(818,604)"/>
<path d="M0 0 C0.66 0.66 1.32 1.32 2 2 C0.824375 2.86625 0.824375 2.86625 -0.375 3.75 C-2.80047244 5.82897637 -3.85694417 7.09040333 -5 10 C-5.33 10 -5.66 10 -6 10 C-6.375 7.8125 -6.375 7.8125 -6 5 C-4.16038352 3.00977164 -2.20813852 1.61010101 0 0 Z " fill="#1C1D17" transform="translate(738,195)"/>
<path d="M0 0 C1.65 0 3.3 0 5 0 C5 0.66 5 1.32 5 2 C5.66 2.33 6.32 2.66 7 3 C4.69 3.33 2.38 3.66 0 4 C0 2.68 0 1.36 0 0 Z " fill="#1D1E1D" transform="translate(1019,618)"/>
<path d="M0 0 C0.99 0.33 1.98 0.66 3 1 C3 2.32 3 3.64 3 5 C1.68 5 0.36 5 -1 5 C-1.33 5.66 -1.66 6.32 -2 7 C-2.125 4.625 -2.125 4.625 -2 2 C-1.34 1.34 -0.68 0.68 0 0 Z " fill="#1C1E1C" transform="translate(876,356)"/>
<path d="M0 0 C0 0.33 0 0.66 0 1 C-0.9075 1.226875 -1.815 1.45375 -2.75 1.6875 C-6.44888324 3.18127977 -7.77905658 4.75400577 -10 8 C-9.74438677 5.6568787 -9.40729228 3.32156597 -9 1 C-6.04335481 -0.4783226 -3.25770263 -0.06032783 0 0 Z " fill="#689363" transform="translate(673,215)"/>
<path d="M0 0 C0.66 0.33 1.32 0.66 2 1 C1.67 1.99 1.34 2.98 1 4 C-0.32 3.67 -1.64 3.34 -3 3 C-2.01 2.01 -1.02 1.02 0 0 Z M-5 4 C-4.34 4.33 -3.68 4.66 -3 5 C-3.66 5.66 -4.32 6.32 -5 7 C-5.99 6.67 -6.98 6.34 -8 6 C-7.01 5.34 -6.02 4.68 -5 4 Z " fill="#5E865A" transform="translate(568,215)"/>
<path d="M0 0 C0.33 1.32 0.66 2.64 1 4 C-1.31 4.33 -3.62 4.66 -6 5 C-5.67 4.01 -5.34 3.02 -5 2 C-3.35 2 -1.7 2 0 2 C0 1.34 0 0.68 0 0 Z " fill="#232120" transform="translate(1029,628)"/>
<path d="M0 0 C-2.61514317 2.12038635 -5.19637616 4.13091744 -8 6 C-7.625 3.5625 -7.625 3.5625 -7 1 C-4.53721199 -0.231394 -2.7204945 -0.07159196 0 0 Z " fill="#282622" transform="translate(509,537)"/>
<path d="M0 0 C0.33 0.66 0.66 1.32 1 2 C0.01 3.485 0.01 3.485 -1 5 C-2.32 4.67 -3.64 4.34 -5 4 C-4.67 3.01 -4.34 2.02 -4 1 C-1.9375 0.3125 -1.9375 0.3125 0 0 Z " fill="#1F1C19" transform="translate(1079,146)"/>
<path d="M0 0 C0.99 0.33 1.98 0.66 3 1 C1.69593116 3.01920337 0.36176581 5.01924973 -1 7 C-1.33 7 -1.66 7 -2 7 C-2.125 4.625 -2.125 4.625 -2 2 C-1.34 1.34 -0.68 0.68 0 0 Z " fill="#252320" transform="translate(905,643)"/>
<path d="M0 0 C0.66 0.33 1.32 0.66 2 1 C1.6875 2.9375 1.6875 2.9375 1 5 C0.01 5.33 -0.98 5.66 -2 6 C-2.33 5.01 -2.66 4.02 -3 3 C-2.01 2.01 -1.02 1.02 0 0 Z " fill="#090906" transform="translate(817,575)"/>
<path d="M0 0 C0.99 0 1.98 0 3 0 C3 1.65 3 3.3 3 5 C1.68 5 0.36 5 -1 5 C-0.67 3.35 -0.34 1.7 0 0 Z " fill="#211F1D" transform="translate(1192,540)"/>
<path d="M0 0 C1.32 0 2.64 0 4 0 C3.67 1.65 3.34 3.3 3 5 C2.01 5 1.02 5 0 5 C0 3.35 0 1.7 0 0 Z " fill="#1D2222" transform="translate(1210,556)"/>
<path d="M0 0 C1.2065625 0.0309375 1.2065625 0.0309375 2.4375 0.0625 C0.7875 1.7125 -0.8625 3.3625 -2.5625 5.0625 C-3.125 3.125 -3.125 3.125 -3.5625 1.0625 C-2.5625 0.0625 -2.5625 0.0625 0 0 Z " fill="#51714C" transform="translate(666.5625,210.9375)"/>
</svg>
