<?xml version="1.0" standalone="no"?>
<!DOCTYPE svg PUBLIC "-//W3C//DTD SVG 20010904//EN"
 "http://www.w3.org/TR/2001/REC-SVG-20010904/DTD/svg10.dtd">
<svg version="1.0" xmlns="http://www.w3.org/2000/svg"
 width="276.000000pt" height="296.000000pt" viewBox="0 0 276.000000 296.000000"
 preserveAspectRatio="xMidYMid meet">

<g transform="translate(0.000000,296.000000) scale(0.100000,-0.100000)"
fill="#000000" stroke="none">
<path d="M265 2944 c-11 -2 -46 -9 -78 -16 -50 -9 -58 -14 -55 -32 3 -23 0
-23 115 -5 219 34 422 -79 528 -294 25 -51 48 -106 51 -123 6 -30 4 -31 -33
-37 -21 -4 -85 -29 -142 -57 -132 -64 -217 -145 -278 -265 -111 -216 -97 -346
58 -556 119 -160 251 -268 511 -416 64 -37 99 -65 130 -104 23 -30 66 -77 95
-105 l53 -51 -21 -59 c-11 -33 -21 -85 -22 -117 -1 -51 2 -62 22 -78 32 -26
57 -10 75 50 8 26 24 67 36 90 17 34 24 40 35 31 10 -9 19 -9 35 0 28 15 42
-3 71 -90 31 -96 71 -122 98 -64 17 37 13 91 -11 172 l-21 73 60 62 c33 34 72
77 87 96 15 19 54 46 86 62 66 31 278 162 355 219 126 94 290 298 335 417 27
71 29 177 5 248 -63 185 -170 313 -325 388 -52 25 -117 51 -143 58 -45 11 -48
14 -43 38 4 14 27 68 52 120 77 156 202 261 352 292 51 10 94 10 267 -4 21 -1
30 3 33 15 5 28 -68 43 -208 42 -108 0 -136 -4 -207 -27 -101 -34 -214 -108
-283 -185 -45 -51 -150 -238 -150 -268 0 -6 -24 -14 -52 -18 -74 -8 -731 -7
-744 2 -6 4 -25 39 -41 78 -41 98 -92 172 -171 246 -78 74 -158 119 -260 147
-72 20 -218 34 -257 25z m623 -384 c50 -97 52 -113 15 -108 -23 3 -29 12 -48
68 -25 75 -58 142 -89 185 -44 60 -36 59 22 -2 35 -37 76 -95 100 -143z m1088
118 c-35 -56 -86 -175 -86 -202 0 -10 -9 -16 -25 -16 -14 0 -25 5 -25 11 0 37
142 259 166 259 2 0 -11 -24 -30 -52z m-17 -283 c170 -40 322 -161 398 -315
93 -190 80 -292 -65 -485 -78 -104 -116 -140 -152 -141 -16 0 -27 3 -24 8 3 4
0 8 -6 8 -6 0 -9 4 -6 9 3 5 -9 15 -27 22 -17 7 -40 24 -51 37 -15 18 -21 21
-27 10 -7 -10 -9 -10 -9 2 0 17 -35 52 -43 43 -3 -2 -8 5 -12 18 -6 16 -9 18
-16 8 -6 -11 -9 -10 -14 3 -4 10 -13 14 -23 11 -9 -4 -14 -3 -10 2 8 8 -33 45
-51 45 -6 0 -11 5 -11 11 0 6 -7 8 -16 5 -8 -3 -12 -2 -9 3 3 5 1 12 -5 16 -6
4 -7 12 -3 18 4 7 -2 5 -12 -3 -11 -9 -16 -10 -11 -2 4 7 1 12 -9 12 -8 0 -18
6 -21 14 -3 8 -12 12 -20 9 -10 -4 -12 0 -7 13 5 14 3 16 -11 11 -11 -4 -15
-3 -11 4 9 14 -25 38 -44 31 -9 -3 -12 -1 -7 6 4 7 -3 17 -18 24 -14 6 -26 15
-26 20 0 4 -6 8 -13 8 -8 0 -19 10 -26 23 -14 26 6 86 88 258 27 58 55 128 62
155 18 73 25 82 67 87 82 8 140 6 201 -8z m-941 -1 c28 -6 33 -13 51 -74 12
-37 43 -115 71 -174 40 -87 100 -236 100 -250 0 -2 -9 -6 -21 -9 -12 -3 -18
-10 -14 -17 3 -6 3 -10 -2 -9 -16 5 -63 -25 -69 -43 -3 -10 -10 -15 -16 -12
-6 4 -17 -1 -24 -11 -8 -10 -16 -16 -20 -13 -7 8 -62 -45 -57 -54 2 -4 -4 -5
-13 -1 -13 5 -15 3 -9 -7 5 -8 3 -11 -6 -8 -17 6 -53 -27 -45 -41 5 -7 1 -8
-9 -5 -8 4 -21 1 -29 -5 -7 -6 -17 -7 -22 -3 -4 4 -2 -2 6 -12 10 -13 10 -17
3 -12 -7 4 -13 2 -13 -3 0 -6 -3 -11 -7 -10 -5 1 -18 -2 -30 -6 -21 -7 -28
-17 -24 -38 1 -5 -3 -6 -8 -3 -5 3 -16 3 -25 0 -12 -5 -14 -10 -6 -19 8 -9 4
-11 -16 -7 -19 3 -25 1 -20 -6 4 -7 -7 -18 -28 -29 -19 -9 -33 -20 -30 -25 3
-4 -2 -5 -10 -2 -9 3 -19 -3 -26 -16 -6 -11 -15 -18 -20 -15 -4 3 -10 -1 -13
-7 -6 -18 -123 102 -177 182 -113 167 -119 297 -22 470 81 145 205 240 371
286 49 13 179 18 229 8z m488 -1618 c14 -54 18 -104 8 -93 -7 7 -52 110 -61
141 -8 24 19 41 31 19 5 -9 15 -39 22 -67z m-221 65 c3 -6 -6 -34 -19 -63 -13
-29 -29 -64 -34 -78 -10 -24 -11 -23 -11 11 -2 77 42 165 64 130z"/>
<path d="M1804 2235 c-98 -49 -138 -111 -139 -216 0 -100 26 -119 108 -78 49
25 94 64 112 99 16 30 29 180 18 196 -17 24 -49 24 -99 -1z m51 -111 c-8 -63
-38 -105 -95 -134 -34 -17 -39 -18 -44 -4 -11 29 -6 65 16 115 17 41 31 56 72
80 59 33 62 30 51 -57z"/>
<path d="M865 2234 c-21 -22 -11 -141 16 -200 28 -60 145 -133 187 -117 36 14
43 124 11 193 -26 58 -53 87 -111 116 -55 28 -81 30 -103 8z m83 -53 c47 -24
76 -56 91 -100 15 -45 14 -111 -1 -111 -24 0 -98 52 -112 78 -14 28 -31 152
-21 152 3 0 22 -9 43 -19z"/>
<path d="M271 1593 c-141 -176 -216 -326 -247 -488 -24 -132 -15 -364 21 -495
63 -233 137 -368 297 -543 40 -44 57 -57 71 -52 9 4 17 11 17 17 0 5 -27 57
-59 116 -62 111 -96 199 -106 273 l-6 44 36 -40 c32 -36 35 -37 30 -15 -24
116 -54 407 -39 370 4 -8 11 -26 16 -40 9 -22 15 -11 54 100 70 198 57 191
123 65 85 -164 152 -257 280 -388 l116 -119 6 49 c3 26 9 192 13 368 l8 320
-64 -62 -63 -61 -219 324 c-121 178 -222 324 -226 324 -3 0 -30 -30 -59 -67z"/>
<path d="M2204 1336 l-219 -324 -63 61 -64 62 8 -320 c3 -175 9 -341 13 -368
l6 -49 116 119 c137 141 187 208 273 373 75 143 60 149 130 -50 39 -111 45
-122 54 -100 5 14 12 32 16 40 16 37 -19 -293 -40 -375 -4 -13 6 -7 30 20 29
33 35 36 36 20 0 -58 -52 -197 -121 -316 -27 -48 -49 -91 -49 -97 0 -5 8 -13
18 -17 13 -5 30 8 70 52 163 178 233 306 297 543 27 98 29 117 29 295 0 218
-13 286 -84 427 -53 105 -210 328 -231 328 -4 0 -105 -146 -225 -324z"/>
</g>
</svg>
